<svg width="222" height="58" viewBox="0 0 222 58" fill="none" xmlns="http://www.w3.org/2000/svg">
<path d="M1.64875 55.4475V51.7107H0.893749V50.7775H1.64875V50.3406C1.64875 50.0296 1.70389 49.7709 1.81417 49.5644C1.92445 49.358 2.09695 49.2039 2.33165 49.1021C2.56918 48.9975 2.87598 48.9452 3.25207 48.9452C3.37932 48.9452 3.49384 48.9494 3.59564 48.9579C3.70027 48.9664 3.79782 48.9777 3.88831 48.9918V49.8189C3.84872 49.8104 3.79641 49.8048 3.73137 49.802C3.66916 49.7963 3.59847 49.7935 3.51929 49.7935C3.27893 49.7935 3.10927 49.8486 3.0103 49.9589C2.91133 50.0664 2.86185 50.2219 2.86185 50.4255V50.7775H3.85013V51.7107H2.88729V55.4475H1.64875ZM6.39967 55.5451C5.92178 55.5451 5.51035 55.4489 5.16537 55.2566C4.82038 55.0615 4.55599 54.783 4.37219 54.421C4.18839 54.0563 4.09649 53.6208 4.09649 53.1146V53.1062C4.09649 52.6028 4.1898 52.1702 4.37643 51.8082C4.56306 51.4463 4.82745 51.1677 5.16961 50.9726C5.51459 50.7747 5.92461 50.6757 6.39967 50.6757C6.87472 50.6757 7.28333 50.7733 7.62549 50.9684C7.97047 51.1635 8.23627 51.4435 8.4229 51.8082C8.60953 52.1702 8.70285 52.6028 8.70285 53.1062V53.1146C8.70285 53.6208 8.61095 54.0563 8.42714 54.421C8.24334 54.783 7.97895 55.0615 7.63397 55.2566C7.29181 55.4489 6.88038 55.5451 6.39967 55.5451ZM6.39967 54.5737C6.62023 54.5737 6.80686 54.5158 6.95956 54.3998C7.11225 54.2839 7.2296 54.1171 7.31161 53.8993C7.39361 53.6816 7.43461 53.42 7.43461 53.1146V53.1062C7.43461 52.8008 7.39361 52.5406 7.31161 52.3257C7.2296 52.108 7.11084 51.9411 6.95531 51.8252C6.80262 51.7064 6.6174 51.647 6.39967 51.647C6.18193 51.647 5.9953 51.7064 5.83978 51.8252C5.68708 51.9411 5.56973 52.108 5.48773 52.3257C5.40572 52.5406 5.36472 52.8008 5.36472 53.1062V53.1146C5.36472 53.4229 5.40431 53.6858 5.48348 53.9036C5.56549 54.1213 5.68284 54.2881 5.83554 54.4041C5.99106 54.5172 6.1791 54.5737 6.39967 54.5737ZM9.36488 55.4475V50.7775H10.6034V51.5028H10.6798C10.7561 51.2483 10.8961 51.0518 11.0997 50.9133C11.3033 50.7719 11.5564 50.7012 11.8589 50.7012C11.9438 50.7012 12.0258 50.7068 12.1049 50.7181C12.1869 50.7295 12.2591 50.7436 12.3213 50.7606V51.8422C12.2279 51.8195 12.1332 51.8026 12.0371 51.7913C11.9438 51.7771 11.849 51.7701 11.7529 51.7701C11.5182 51.7701 11.3146 51.8139 11.1421 51.9015C10.9696 51.9864 10.8367 52.108 10.7434 52.2663C10.6501 52.4247 10.6034 52.6141 10.6034 52.8347V55.4475H9.36488ZM14.816 55.4475V49.3269H16.2836L17.976 53.806H18.0523L19.7405 49.3269H21.2081V55.4475H20.0671V51.2823H19.4351L20.6567 49.4966L18.4129 55.4475H17.6112L15.3716 49.4966L16.589 51.2823H15.957V55.4475H14.816ZM24.2793 55.5451C23.8071 55.5451 23.3999 55.4475 23.0577 55.2524C22.7184 55.0545 22.4568 54.7745 22.273 54.4126C22.0892 54.0506 21.9973 53.6194 21.9973 53.1189V53.1146C21.9973 52.6198 22.0878 52.19 22.2688 51.8252C22.4526 51.4604 22.7113 51.1776 23.045 50.9769C23.3815 50.7761 23.776 50.6757 24.2284 50.6757C24.6837 50.6757 25.0767 50.7733 25.4076 50.9684C25.7384 51.1635 25.9929 51.4364 26.1711 51.787C26.3492 52.1377 26.4383 52.5491 26.4383 53.0213V53.4073H22.6166V52.6311H25.8445L25.2634 53.3649V52.8686C25.2634 52.5887 25.2195 52.3554 25.1319 52.1688C25.047 51.9821 24.9283 51.8422 24.7756 51.7488C24.6257 51.6527 24.4504 51.6046 24.2496 51.6046C24.0517 51.6046 23.8749 51.6541 23.7194 51.7531C23.5667 51.8492 23.4451 51.992 23.3546 52.1815C23.267 52.3681 23.2232 52.5972 23.2232 52.8686V53.3691C23.2232 53.6321 23.267 53.8569 23.3546 54.0435C23.4423 54.2302 23.5667 54.373 23.7279 54.4719C23.8891 54.5709 24.0814 54.6204 24.3048 54.6204C24.4857 54.6204 24.6398 54.5935 24.7671 54.5398C24.8943 54.4861 24.9961 54.4239 25.0725 54.3532C25.1517 54.2797 25.2054 54.2132 25.2337 54.1538L25.2464 54.1284H26.4001L26.3916 54.1708C26.3549 54.3178 26.2884 54.4719 26.1923 54.6331C26.0961 54.7915 25.9632 54.9399 25.7936 55.0785C25.6267 55.2171 25.4175 55.3302 25.1658 55.4178C24.917 55.5027 24.6215 55.5451 24.2793 55.5451ZM28.7715 55.5196C28.3841 55.5196 28.0476 55.4235 27.762 55.2312C27.4792 55.0361 27.2601 54.759 27.1045 54.3998C26.9518 54.0407 26.8755 53.6123 26.8755 53.1146V53.1062C26.8755 52.6056 26.9504 52.1758 27.1003 51.8167C27.253 51.4576 27.4707 51.1819 27.7535 50.9896C28.0363 50.7973 28.3756 50.7012 28.7715 50.7012C28.9836 50.7012 29.1801 50.7351 29.3611 50.803C29.5449 50.868 29.706 50.9613 29.8446 51.0829C29.9832 51.2045 30.0906 51.3516 30.167 51.524H30.2433V48.9918H31.4819V55.4475H30.2433V54.7222H30.167C30.0878 54.889 29.9803 55.0318 29.8446 55.1506C29.7117 55.2694 29.5548 55.3613 29.3738 55.4263C29.1928 55.4885 28.992 55.5196 28.7715 55.5196ZM29.1914 54.4932C29.412 54.4932 29.6014 54.438 29.7598 54.3277C29.9181 54.2174 30.0397 54.0591 30.1246 53.8527C30.2122 53.6462 30.256 53.4017 30.256 53.1189V53.1104C30.256 52.822 30.2122 52.576 30.1246 52.3724C30.0397 52.1659 29.9167 52.0076 29.7555 51.8973C29.5972 51.7842 29.4091 51.7276 29.1914 51.7276C28.9765 51.7276 28.7885 51.7842 28.6273 51.8973C28.4689 52.0076 28.3473 52.1659 28.2625 52.3724C28.1777 52.576 28.1352 52.8206 28.1352 53.1062V53.1146C28.1352 53.4002 28.1777 53.6462 28.2625 53.8527C28.3473 54.0591 28.4689 54.2174 28.6273 54.3277C28.7856 54.438 28.9737 54.4932 29.1914 54.4932ZM32.4238 55.4475V50.7775H33.6624V55.4475H32.4238ZM33.0473 50.0607C32.8579 50.0607 32.6939 49.9942 32.5553 49.8613C32.4168 49.7256 32.3475 49.563 32.3475 49.3736C32.3475 49.1813 32.4168 49.0187 32.5553 48.8858C32.6939 48.75 32.8579 48.6822 33.0473 48.6822C33.2396 48.6822 33.4036 48.75 33.5394 48.8858C33.6751 49.0187 33.743 49.1813 33.743 49.3736C33.743 49.563 33.6751 49.7256 33.5394 49.8613C33.4036 49.9942 33.2396 50.0607 33.0473 50.0607ZM36.6191 55.5451C36.1327 55.5451 35.7185 55.4503 35.3763 55.2609C35.037 55.0686 34.7782 54.7915 34.6001 54.4295C34.422 54.0648 34.3329 53.6236 34.3329 53.1062V53.0977C34.3329 52.583 34.422 52.1461 34.6001 51.787C34.7782 51.4279 35.037 51.1536 35.3763 50.9642C35.7185 50.7719 36.1327 50.6757 36.6191 50.6757C37.0319 50.6757 37.3868 50.7464 37.6837 50.8878C37.9806 51.0292 38.2153 51.2285 38.3878 51.4859C38.5603 51.7432 38.665 52.0458 38.7017 52.3936V52.4063H37.5522L37.548 52.3978C37.5056 52.1716 37.4066 51.9906 37.2511 51.8549C37.0984 51.7163 36.8891 51.647 36.6233 51.647C36.4028 51.647 36.2147 51.7036 36.0592 51.8167C35.9065 51.927 35.7906 52.0896 35.7114 52.3045C35.6322 52.5194 35.5926 52.7838 35.5926 53.0977V53.1062C35.5926 53.42 35.6322 53.6873 35.7114 53.9078C35.7934 54.1255 35.9108 54.291 36.0635 54.4041C36.2161 54.5172 36.4028 54.5737 36.6233 54.5737C36.8778 54.5737 37.0814 54.5144 37.2341 54.3956C37.3868 54.2768 37.49 54.0987 37.5438 53.8612L37.5522 53.8484L38.6975 53.8442V53.8739C38.6522 54.2104 38.5434 54.5045 38.3709 54.7561C38.1984 55.0078 37.9651 55.2029 37.671 55.3415C37.3769 55.4772 37.0263 55.5451 36.6191 55.5451ZM40.5938 55.5196C40.2997 55.5196 40.0367 55.4631 39.8049 55.35C39.5758 55.234 39.3963 55.0714 39.2662 54.8622C39.1361 54.6501 39.0711 54.4027 39.0711 54.1199V54.1114C39.0711 53.8315 39.1404 53.5911 39.2789 53.3903C39.4203 53.1896 39.6253 53.0326 39.8939 52.9195C40.1654 52.8036 40.4948 52.7343 40.8822 52.7117L42.6213 52.6056V53.3606L41.0689 53.4624C40.8031 53.4766 40.6051 53.5331 40.475 53.6321C40.345 53.7311 40.2799 53.8654 40.2799 54.0351V54.0435C40.2799 54.2217 40.3478 54.3617 40.4835 54.4635C40.6193 54.5653 40.7946 54.6162 41.0095 54.6162C41.2018 54.6162 41.3728 54.578 41.5227 54.5016C41.6726 54.4253 41.7913 54.3221 41.879 54.192C41.9667 54.0591 42.0105 53.9106 42.0105 53.7466V52.2578C42.0105 52.0542 41.9426 51.8987 41.8069 51.7913C41.674 51.681 41.4803 51.6258 41.2258 51.6258C41.0024 51.6258 40.82 51.664 40.6786 51.7404C40.5401 51.8139 40.4468 51.9199 40.3987 52.0585L40.3902 52.0754H39.245L39.2492 52.0373C39.2832 51.763 39.3864 51.524 39.5589 51.3204C39.7342 51.1169 39.9689 50.9585 40.263 50.8454C40.5599 50.7323 40.9034 50.6757 41.2937 50.6757C41.7065 50.6757 42.0572 50.7393 42.3456 50.8666C42.634 50.991 42.8532 51.172 43.003 51.4095C43.1557 51.6442 43.2321 51.927 43.2321 52.2578V55.4475H42.0105V54.8282H41.9341C41.855 54.9725 41.7489 55.0969 41.616 55.2015C41.486 55.3033 41.3333 55.3825 41.1579 55.439C40.9854 55.4928 40.7974 55.5196 40.5938 55.5196ZM44.1401 55.4475V48.9918H45.3787V55.4475H44.1401ZM47.8904 55.4475L50.0154 49.3269H51.1055V50.5485H50.7322L49.2349 55.4475H47.8904ZM49.0271 53.963L49.341 53.0044H52.1701L52.484 53.963H49.0271ZM52.3016 55.4475L50.8086 50.5485V49.3269H51.5211L53.6504 55.4475H52.3016ZM55.6316 55.5196C55.2442 55.5196 54.9077 55.4235 54.6221 55.2312C54.3393 55.0361 54.1202 54.759 53.9646 54.3998C53.8119 54.0407 53.7356 53.6123 53.7356 53.1146V53.1062C53.7356 52.6056 53.8105 52.1758 53.9604 51.8167C54.1131 51.4576 54.3308 51.1819 54.6136 50.9896C54.8964 50.7973 55.2357 50.7012 55.6316 50.7012C55.8437 50.7012 56.0402 50.7351 56.2212 50.803C56.405 50.868 56.5661 50.9613 56.7047 51.0829C56.8433 51.2045 56.9507 51.3516 57.0271 51.524H57.1034V48.9918H58.342V55.4475H57.1034V54.7222H57.0271C56.9479 54.889 56.8404 55.0318 56.7047 55.1506C56.5718 55.2694 56.4149 55.3613 56.2339 55.4263C56.0529 55.4885 55.8521 55.5196 55.6316 55.5196ZM56.0515 54.4932C56.2721 54.4932 56.4615 54.438 56.6199 54.3277C56.7782 54.2174 56.8998 54.0591 56.9846 53.8527C57.0723 53.6462 57.1161 53.4017 57.1161 53.1189V53.1104C57.1161 52.822 57.0723 52.576 56.9846 52.3724C56.8998 52.1659 56.7768 52.0076 56.6156 51.8973C56.4573 51.7842 56.2692 51.7276 56.0515 51.7276C55.8366 51.7276 55.6485 51.7842 55.4874 51.8973C55.329 52.0076 55.2074 52.1659 55.1226 52.3724C55.0378 52.576 54.9953 52.8206 54.9953 53.1062V53.1146C54.9953 53.4002 55.0378 53.6462 55.1226 53.8527C55.2074 54.0591 55.329 54.2174 55.4874 54.3277C55.6457 54.438 55.8338 54.4932 56.0515 54.4932ZM59.2754 55.4475V50.7775H60.514V51.5071H60.5903C60.6893 51.2441 60.8533 51.0405 61.0824 50.8963C61.3114 50.7492 61.5786 50.6757 61.884 50.6757C62.0961 50.6757 62.2884 50.7111 62.4609 50.7818C62.6334 50.8496 62.7804 50.9472 62.902 51.0744C63.0236 51.2017 63.1169 51.3558 63.1819 51.5368H63.2583C63.329 51.3643 63.4336 51.2144 63.5722 51.0872C63.7107 50.9571 63.8733 50.8567 64.06 50.786C64.2466 50.7125 64.4488 50.6757 64.6665 50.6757C64.9776 50.6757 65.2448 50.7393 65.4682 50.8666C65.6944 50.9938 65.8683 51.1748 65.9899 51.4095C66.1143 51.6414 66.1765 51.9185 66.1765 52.2409V55.4475H64.938V52.5505C64.938 52.361 64.9097 52.2041 64.8531 52.0797C64.7966 51.9553 64.7103 51.862 64.5944 51.7997C64.4813 51.7347 64.3385 51.7022 64.166 51.7022C63.9992 51.7022 63.8535 51.7404 63.7291 51.8167C63.6075 51.8931 63.5128 51.9963 63.4449 52.1263C63.3771 52.2564 63.3431 52.4063 63.3431 52.576V55.4475H62.1046V52.4954C62.1046 52.3285 62.0735 52.1857 62.0113 52.067C61.9519 51.9482 61.8642 51.8577 61.7483 51.7955C61.6352 51.7333 61.498 51.7022 61.3369 51.7022C61.1757 51.7022 61.0329 51.7432 60.9085 51.8252C60.7869 51.9044 60.6907 52.0147 60.62 52.156C60.5493 52.2946 60.514 52.453 60.514 52.6311V55.4475H59.2754ZM67.0379 55.4475V50.7775H68.2764V55.4475H67.0379ZM67.6614 50.0607C67.4719 50.0607 67.3079 49.9942 67.1694 49.8613C67.0308 49.7256 66.9615 49.563 66.9615 49.3736C66.9615 49.1813 67.0308 49.0187 67.1694 48.8858C67.3079 48.75 67.4719 48.6822 67.6614 48.6822C67.8537 48.6822 68.0177 48.75 68.1534 48.8858C68.2892 49.0187 68.357 49.1813 68.357 49.3736C68.357 49.563 68.2892 49.7256 68.1534 49.8613C68.0177 49.9942 67.8537 50.0607 67.6614 50.0607ZM69.176 55.4475V50.7775H70.4145V51.4986H70.4909C70.5983 51.2441 70.7652 51.0433 70.9914 50.8963C71.2176 50.7492 71.4975 50.6757 71.8312 50.6757C72.3515 50.6757 72.7474 50.8284 73.0189 51.1338C73.2932 51.4364 73.4303 51.8676 73.4303 52.4275V55.4475H72.1918V52.7074C72.1918 52.3766 72.1225 52.1263 71.9839 51.9567C71.8454 51.787 71.629 51.7022 71.335 51.7022C71.1455 51.7022 70.9815 51.746 70.8429 51.8337C70.7072 51.9185 70.6012 52.0387 70.5248 52.1942C70.4513 52.3497 70.4145 52.5335 70.4145 52.7456V55.4475H69.176Z" fill="#FF8C39"/>
<path fill-rule="evenodd" clip-rule="evenodd" d="M28.4496 41.1302V11.9111H35.3134V41.1302H28.4496ZM31.8677 7.72114C30.8019 7.72114 29.9014 7.3536 29.1663 6.61853C28.4312 5.88345 28.0637 5.00137 28.0637 3.97226C28.0637 2.92478 28.4312 2.0427 29.1663 1.326C29.9014 0.590926 30.8019 0.223389 31.8677 0.223389C32.9519 0.223389 33.8616 0.590926 34.5967 1.326C35.3317 2.0427 35.6993 2.92478 35.6993 3.97226C35.6993 5.00137 35.3317 5.88345 34.5967 6.61853C33.8616 7.3536 32.9519 7.72114 31.8677 7.72114ZM0.668945 41.1302V1.35356H7.78078V35.1486H25.8085V41.1302H0.668945ZM41.9301 17.2036V41.1302H48.7939V17.2036H54.5275V11.9111H48.6561V9.31992C48.6561 8.12543 48.9685 7.22496 49.5933 6.61853C50.2365 6.01209 51.2288 5.70887 52.5703 5.70887C52.9379 5.70887 53.2962 5.72725 53.6454 5.764C54.0129 5.78238 54.3437 5.80995 54.6377 5.8467V1.05035C54.215 0.976839 53.6637 0.91252 52.9838 0.85739C52.3222 0.802259 51.6515 0.774694 50.9715 0.774694C48.8582 0.774694 47.14 1.07791 45.8168 1.68435C44.4937 2.27241 43.5105 3.18206 42.8673 4.41331C42.2425 5.64456 41.9301 7.21578 41.9301 9.12697V11.9111H37.9332V17.2036H41.9301ZM68.449 41.7091C65.5271 41.7091 63.0095 41.0935 60.8961 39.8622C58.8012 38.631 57.1932 36.8852 56.0722 34.6248C54.9512 32.3645 54.3907 29.6906 54.3907 26.6033V26.5758C54.3907 23.5068 54.9512 20.833 56.0722 18.5543C57.2116 16.2572 58.8012 14.4746 60.841 13.2066C62.8992 11.9386 65.3249 11.3046 68.1182 11.3046C70.8931 11.3046 73.2913 11.9202 75.3128 13.1515C77.3526 14.3644 78.9146 16.0734 79.9988 18.2786C81.1015 20.4839 81.6528 23.0566 81.6528 25.9969V28.2021H61.2022C61.2339 29.855 61.527 31.2792 62.0814 32.4747C62.6879 33.7244 63.5424 34.6891 64.645 35.3691C65.7476 36.0307 67.0616 36.3614 68.5868 36.3614C69.7262 36.3614 70.7277 36.1869 71.5914 35.8377C72.4552 35.4702 73.1627 35.0016 73.714 34.4319C74.2837 33.8622 74.6788 33.2466 74.8993 32.585L74.9544 32.392H81.3495L81.2944 32.6953C81.0555 33.8162 80.6145 34.9189 79.9713 36.0031C79.3281 37.0689 78.4644 38.0337 77.3801 38.8974C76.2959 39.7612 75.0095 40.4503 73.521 40.9648C72.0325 41.461 70.3418 41.7091 68.449 41.7091ZM62.0814 20.5665C61.6753 21.455 61.4094 22.4749 61.2838 23.6263H74.986C74.8628 22.4206 74.595 21.3731 74.1826 20.4839C73.5945 19.2159 72.7859 18.2694 71.7568 17.6446C70.7277 17.0014 69.5424 16.6798 68.2009 16.6798C66.841 16.6798 65.6282 17.0106 64.5623 17.6722C63.5148 18.3154 62.6879 19.2802 62.0814 20.5665ZM118.856 50.7229C119.499 50.7964 120.151 50.8332 120.813 50.8332C122.834 50.8332 124.58 50.5484 126.05 49.9787C127.539 49.4274 128.807 48.5085 129.854 47.2221C130.902 45.9541 131.793 44.2543 132.528 42.1226L143.058 11.9111H135.836L128.979 35.2864H128.772L121.915 11.9111H114.445L124.948 41.1578L124.534 42.3431C124.093 43.5743 123.487 44.4105 122.715 44.8515C121.943 45.311 120.895 45.5407 119.572 45.5407C119.076 45.5407 118.635 45.5131 118.249 45.458L117.284 45.3201V50.53C117.707 50.6035 118.231 50.6678 118.856 50.7229ZM144.238 41.1302V11.9111H151.074V16.4869H151.24C151.993 14.9065 153.114 13.6477 154.603 12.7105C156.11 11.7732 157.966 11.3046 160.171 11.3046C163.387 11.3046 165.868 12.2786 167.613 14.2265C169.378 16.1745 170.26 18.8391 170.26 22.2205V41.1302H163.396V23.5987C163.396 21.5221 162.909 19.9234 161.935 18.8024C160.961 17.663 159.5 17.0933 157.552 17.0933C156.247 17.0933 155.108 17.3965 154.134 18.003C153.16 18.591 152.407 19.418 151.874 20.4839C151.341 21.5313 151.074 22.7626 151.074 24.1776V41.1302H144.238ZM178.325 39.8622C180.438 41.0935 182.938 41.7091 185.823 41.7091C188.285 41.7091 190.445 41.2405 192.301 40.3033C194.157 39.3477 195.636 38.0613 196.739 36.4441C197.841 34.827 198.484 33.0077 198.668 30.9862L198.696 29.9325H192.218L192.163 31.0413C191.85 32.5666 191.152 33.8071 190.068 34.7627C189.002 35.6999 187.596 36.1685 185.85 36.1685C184.417 36.1685 183.158 35.7918 182.074 35.0383C181.008 34.2665 180.172 33.1639 179.566 31.7305C178.977 30.2971 178.683 28.5697 178.683 26.5482V26.5206C178.683 24.5176 178.977 22.7993 179.566 21.3659C180.154 19.9325 180.981 18.8299 182.046 18.0581C183.131 17.2679 184.389 16.8728 185.823 16.8728C187.642 16.8728 189.076 17.3782 190.123 18.3889C191.189 19.3812 191.86 20.5849 192.135 21.9999L192.19 23.0812H198.641V22.0275C198.494 20.0796 197.887 18.297 196.821 16.6798C195.756 15.0627 194.285 13.7671 192.411 12.7931C190.536 11.8008 188.313 11.3046 185.74 11.3046C182.91 11.3046 180.438 11.9202 178.325 13.1515C176.23 14.3827 174.604 16.1377 173.446 18.4165C172.288 20.6768 171.709 23.3598 171.709 26.4655V26.4931C171.709 29.6171 172.279 32.3185 173.418 34.5973C174.576 36.876 176.212 38.631 178.325 39.8622ZM91.2097 40.5075C93.3787 41.3821 95.915 41.8194 98.8187 41.8194C101.897 41.8194 104.539 41.3471 106.743 40.4025C108.964 39.458 110.661 38.1198 111.833 36.3881C113.022 34.6564 113.617 32.6186 113.617 30.2747V30.2484C113.617 28.2893 113.215 26.6101 112.41 25.2107C111.623 23.8114 110.398 22.6482 108.737 21.7211C107.075 20.794 104.923 20.0594 102.282 19.5171L98.2152 18.6775C95.9413 18.2052 94.2621 17.558 93.1776 16.7359C92.1105 15.8963 91.577 14.8118 91.577 13.4824V13.4561C91.577 12.4416 91.8657 11.5495 92.4429 10.7799C93.0376 10.0102 93.8685 9.41548 94.9355 8.99567C96.02 8.55837 97.2969 8.33972 98.7662 8.33972C100.183 8.33972 101.434 8.54962 102.518 8.96943C103.603 9.38924 104.477 9.99271 105.142 10.7799C105.807 11.5495 106.218 12.4853 106.375 13.5873L106.428 13.9284H112.882L112.856 13.4824C112.734 11.3308 112.078 9.44171 110.888 7.81496C109.716 6.1882 108.098 4.92003 106.034 4.01045C103.97 3.10087 101.565 2.64608 98.8187 2.64608C96.1075 2.64608 93.6936 3.11836 91.577 4.06293C89.4605 4.99 87.7988 6.29316 86.5918 7.97239C85.4024 9.63413 84.7989 11.5845 84.7814 13.8235V13.8497C84.7814 16.6659 85.7085 18.9574 87.5626 20.7241C89.4168 22.4732 92.198 23.7327 95.9063 24.5023L99.9732 25.3419C102.422 25.8667 104.171 26.5401 105.221 27.3623C106.288 28.1844 106.821 29.3039 106.821 30.7207V30.747C106.821 31.8315 106.506 32.7848 105.877 33.6069C105.247 34.4115 104.346 35.0325 103.174 35.4698C102.02 35.9071 100.647 36.1258 99.0549 36.1258C97.4806 36.1258 96.0725 35.9158 94.8305 35.496C93.6061 35.0587 92.6178 34.4465 91.8657 33.6594C91.1135 32.8722 90.6412 31.9364 90.4488 30.8519L90.3963 30.5371H83.9418L83.968 30.9306C84.1254 33.1871 84.8251 35.1287 86.0671 36.7555C87.3265 38.3822 89.0407 39.6329 91.2097 40.5075ZM206.922 29.9019H198.696V23.0684H206.922V14.8427H213.755V23.0684H221.981V29.9019H213.755V38.1273L206.922 38.1273V29.9019Z" fill="#FF6B00"/>
</svg>
