<svg width="212" height="85" viewBox="0 0 212 85" fill="none" xmlns="http://www.w3.org/2000/svg">
<path d="M3.06733 55.031V19.3774H10.5291V48.8787H26.1199V55.031H3.06733ZM28.0491 55.031V28.5441H35.2638V55.031H28.0491ZM31.6564 25.1344C30.5693 25.1344 29.6551 24.7638 28.9138 24.0225C28.1726 23.2813 27.802 22.4 27.802 21.3788C27.802 20.341 28.1726 19.4598 28.9138 18.735C29.6551 17.9938 30.5693 17.6231 31.6564 17.6231C32.7436 17.6231 33.6578 17.9938 34.399 18.735C35.1402 19.4598 35.5109 20.341 35.5109 21.3788C35.5109 22.4 35.1402 23.2813 34.399 24.0225C33.6578 24.7638 32.7436 25.1344 31.6564 25.1344ZM40.0097 55.031V33.9798H36.4023V28.5441H40.0097V26.4192C40.0097 24.6896 40.2979 23.2648 40.8745 22.1447C41.4675 21.0246 42.3981 20.1928 43.6665 19.6492C44.9513 19.1056 46.6397 18.8338 48.7316 18.8338C49.3905 18.8338 50.0576 18.8668 50.7329 18.9327C51.4083 18.9821 51.9519 19.048 52.3637 19.1303V23.899C52.1166 23.8496 51.8283 23.8166 51.4989 23.8001C51.1694 23.7837 50.84 23.7754 50.5106 23.7754C49.3246 23.7754 48.4516 24.0225 47.8915 24.5167C47.3315 25.0108 47.0515 25.7356 47.0515 26.691V28.5441H52.3143V33.9798H47.2244V55.031H40.0097ZM64.3243 55.5746C61.6229 55.5746 59.3003 55.0228 57.3567 53.9191C55.413 52.7991 53.914 51.2095 52.8598 49.1505C51.8221 47.0915 51.3032 44.6537 51.3032 41.837V41.8122C51.3032 38.9955 51.8221 36.5577 52.8598 34.4987C53.914 32.4232 55.3883 30.8254 57.2825 29.7053C59.1933 28.5688 61.4417 28.0005 64.0278 28.0005C66.6139 28.0005 68.8459 28.5523 70.7237 29.6559C72.6179 30.7431 74.0757 32.2832 75.097 34.2763C76.1347 36.2694 76.6536 38.6002 76.6536 41.2687V43.4924H54.8364V38.9461H73.2439L69.8095 43.1959V40.4286C69.8095 38.8802 69.5706 37.5872 69.0929 36.5494C68.6152 35.4952 67.9481 34.7046 67.0916 34.1775C66.2515 33.6504 65.2714 33.3868 64.1513 33.3868C63.0312 33.3868 62.0347 33.6586 61.1617 34.2022C60.3051 34.7458 59.6298 35.5447 59.1356 36.5989C58.6579 37.6366 58.4191 38.9132 58.4191 40.4286V43.2206C58.4191 44.6866 58.6579 45.9385 59.1356 46.9762C59.6298 48.0139 60.3298 48.8128 61.2358 49.3729C62.1418 49.9165 63.2207 50.1882 64.4725 50.1882C65.4609 50.1882 66.3174 50.0318 67.0422 49.7188C67.7669 49.4058 68.3599 49.0105 68.8211 48.5328C69.2824 48.0551 69.5953 47.5692 69.7601 47.075L69.8095 46.9268H76.4312L76.3571 47.1986C76.1594 48.1704 75.7723 49.1505 75.1958 50.1388C74.6193 51.1271 73.8369 52.0331 72.8485 52.8567C71.8767 53.6803 70.6825 54.3392 69.2659 54.8333C67.8658 55.3275 66.2186 55.5746 64.3243 55.5746ZM91.9992 55.6487C89.1825 55.6487 86.7199 55.2369 84.6115 54.4133C82.5196 53.5732 80.8724 52.379 79.6699 50.8307C78.4675 49.2658 77.7921 47.388 77.6439 45.1972L77.6192 44.8019H84.6609L84.7103 45.0737C84.8751 45.9961 85.2869 46.795 85.9457 47.4704C86.6211 48.1292 87.4941 48.6481 88.5648 49.027C89.6355 49.3894 90.8462 49.5705 92.1969 49.5705C93.5805 49.5705 94.7665 49.3894 95.7548 49.027C96.7596 48.6481 97.5338 48.121 98.0773 47.4457C98.6374 46.7538 98.9174 45.9549 98.9174 45.049V45.0243C98.9174 43.8218 98.4397 42.8829 97.4844 42.2076C96.5455 41.5157 94.9641 40.9392 92.7404 40.478L88.9848 39.7368C85.4763 39.0285 82.8325 37.8343 81.0536 36.1541C79.2746 34.474 78.3851 32.2914 78.3851 29.6065V29.5818C78.3851 27.4075 78.9699 25.5132 80.1394 23.899C81.3089 22.2682 82.9149 21.0081 84.9574 20.1187C86.9999 19.2127 89.339 18.7597 91.9745 18.7597C94.7253 18.7597 97.0973 19.188 99.0904 20.0445C101.1 20.9011 102.665 22.1118 103.785 23.6766C104.905 25.2414 105.523 27.0616 105.638 29.1371L105.663 29.6065H98.6209L98.5962 29.31C98.4644 28.3711 98.1103 27.5722 97.5338 26.9133C96.9573 26.238 96.1913 25.7191 95.2359 25.3567C94.297 24.9944 93.2099 24.8132 91.9745 24.8132C90.7061 24.8132 89.6108 25.0026 88.6883 25.3814C87.7659 25.7438 87.0576 26.2462 86.5634 26.8886C86.0858 27.531 85.8469 28.2805 85.8469 29.1371V29.1618C85.8469 30.2819 86.3246 31.1878 87.28 31.8796C88.2353 32.5715 89.7343 33.1233 91.7768 33.5351L95.5571 34.301C98.0444 34.7952 100.087 35.4788 101.685 36.3518C103.282 37.2248 104.46 38.3284 105.218 39.6627C105.992 40.9804 106.379 42.57 106.379 44.4313V44.456C106.379 46.7456 105.803 48.7305 104.65 50.4106C103.513 52.0743 101.866 53.3673 99.7081 54.2898C97.5667 55.1957 94.9971 55.6487 91.9992 55.6487ZM112.459 63.7529C111.751 63.7529 111.067 63.72 110.409 63.6541C109.75 63.5882 109.206 63.5141 108.778 63.4317V58.0701C109.041 58.1195 109.379 58.1689 109.791 58.2183C110.203 58.2842 110.672 58.3172 111.199 58.3172C112.286 58.3172 113.143 58.136 113.769 57.7736C114.395 57.4112 114.864 56.7853 115.177 55.8958L115.498 55.031L106.134 28.5441H114.065L120.045 50.6824L119.081 49.2493H120.44L119.476 50.6824L125.456 28.5441H133.066L123.973 55.5005C123.281 57.5759 122.408 59.2149 121.354 60.4173C120.316 61.6198 119.065 62.4763 117.599 62.987C116.133 63.4976 114.42 63.7529 112.459 63.7529ZM133.562 55.031V28.5441H140.777V32.8927H140.925C141.617 31.3772 142.638 30.183 143.989 29.31C145.339 28.437 147.011 28.0005 149.004 28.0005C151.92 28.0005 154.168 28.8817 155.75 30.6442C157.347 32.3903 158.146 34.8199 158.146 37.9331V55.031H150.932V39.4156C150.932 37.686 150.52 36.3518 149.696 35.4129C148.889 34.4575 147.678 33.9798 146.064 33.9798C144.993 33.9798 144.063 34.2269 143.272 34.7211C142.482 35.1987 141.864 35.8741 141.419 36.7471C140.991 37.6201 140.777 38.6414 140.777 39.8109V55.031H133.562ZM172.8 55.5746C170.115 55.5746 167.793 55.0145 165.833 53.8944C163.872 52.7743 162.365 51.1848 161.311 49.1258C160.257 47.0503 159.73 44.596 159.73 41.7628V41.7381C159.73 38.9049 160.257 36.4671 161.311 34.4246C162.382 32.3656 163.889 30.7843 165.833 29.6806C167.793 28.5605 170.091 28.0005 172.726 28.0005C175.131 28.0005 177.215 28.4535 178.977 29.3594C180.74 30.2489 182.115 31.4596 183.103 32.9915C184.108 34.5234 184.66 36.2447 184.759 38.1555V38.3284H178.063L178.014 38.1061C177.799 36.8377 177.256 35.7835 176.383 34.9434C175.51 34.0869 174.324 33.6586 172.825 33.6586C171.655 33.6586 170.634 33.9881 169.761 34.6469C168.905 35.2893 168.237 36.22 167.76 37.4389C167.299 38.6414 167.068 40.0827 167.068 41.7628V41.7875C167.068 43.5171 167.299 44.9913 167.76 46.2103C168.237 47.4127 168.905 48.3351 169.761 48.9776C170.634 49.6035 171.664 49.9165 172.85 49.9165C174.299 49.9165 175.46 49.5129 176.333 48.7058C177.223 47.8822 177.791 46.8033 178.038 45.469L178.063 45.2467H184.784V45.3949C184.668 47.3221 184.108 49.0517 183.103 50.5836C182.099 52.1155 180.715 53.3344 178.952 54.2404C177.206 55.1298 175.156 55.5746 172.8 55.5746Z" fill="#FF8A00"/>
<path d="M4.93388 82.1479V75.2621H3.54265V73.5426H4.93388V72.7376C4.93388 72.1644 5.03549 71.6876 5.2387 71.3073C5.44191 70.9269 5.75976 70.6429 6.19224 70.4553C6.62993 70.2625 7.19529 70.1661 7.8883 70.1661C8.12278 70.1661 8.33381 70.174 8.52139 70.1896C8.71418 70.2052 8.89395 70.2261 9.06069 70.2521V71.7762C8.98774 71.7606 8.89134 71.7502 8.7715 71.745C8.65686 71.7345 8.5266 71.7293 8.3807 71.7293C7.9378 71.7293 7.62516 71.8309 7.44279 72.0341C7.26042 72.2322 7.16923 72.5187 7.16923 72.8939V73.5426H8.99034V75.2621H7.21613V82.1479H4.93388ZM13.6883 82.3277C12.8077 82.3277 12.0496 82.1506 11.4139 81.7962C10.7782 81.4367 10.291 80.9235 9.95233 80.2565C9.61364 79.5843 9.44429 78.7819 9.44429 77.8492V77.8336C9.44429 76.9061 9.61624 76.1088 9.96014 75.4419C10.304 74.7749 10.7912 74.2617 11.4217 73.9022C12.0574 73.5374 12.813 73.355 13.6883 73.355C14.5637 73.355 15.3167 73.5348 15.9471 73.8943C16.5828 74.2539 17.0726 74.7697 17.4165 75.4419C17.7604 76.1088 17.9324 76.9061 17.9324 77.8336V77.8492C17.9324 78.7819 17.763 79.5843 17.4243 80.2565C17.0857 80.9235 16.5985 81.4367 15.9628 81.7962C15.3323 82.1506 14.5741 82.3277 13.6883 82.3277ZM13.6883 80.5379C14.0948 80.5379 14.4387 80.4311 14.72 80.2174C15.0014 80.0038 15.2177 79.6964 15.3688 79.2951C15.5199 78.8939 15.5954 78.4119 15.5954 77.8492V77.8336C15.5954 77.2708 15.5199 76.7914 15.3688 76.3954C15.2177 75.9942 14.9988 75.6868 14.7122 75.4732C14.4308 75.2543 14.0896 75.1449 13.6883 75.1449C13.2871 75.1449 12.9432 75.2543 12.6566 75.4732C12.3753 75.6868 12.159 75.9942 12.0079 76.3954C11.8568 76.7914 11.7813 77.2708 11.7813 77.8336V77.8492C11.7813 78.4172 11.8542 78.9017 12.0001 79.303C12.1512 79.7042 12.3674 80.0116 12.6488 80.2252C12.9354 80.4337 13.2819 80.5379 13.6883 80.5379ZM19.1523 82.1479V73.5426H21.4345V74.8791H21.5752C21.7159 74.4102 21.9738 74.0481 22.349 73.7927C22.7242 73.5322 23.1905 73.4019 23.748 73.4019C23.9044 73.4019 24.0555 73.4124 24.2014 73.4332C24.3525 73.454 24.4854 73.4801 24.6 73.5114V75.5044C24.428 75.4627 24.2535 75.4315 24.0763 75.4106C23.9044 75.3846 23.7298 75.3715 23.5527 75.3715C23.1202 75.3715 22.745 75.4523 22.4272 75.6138C22.1093 75.7702 21.8644 75.9942 21.6925 76.286C21.5205 76.5778 21.4345 76.9269 21.4345 77.3333V82.1479H19.1523ZM33.2396 69.7265C35.5766 69.7265 37.3214 71.2472 37.3214 73.3761C37.3214 75.521 35.5766 77.0417 33.2396 77.0417C30.9186 77.0417 29.1418 75.521 29.1418 73.3761C29.1418 71.2472 30.9186 69.7265 33.2396 69.7265ZM33.2396 71.5513C32.1031 71.5513 31.2387 72.2236 31.2387 73.3761C31.2387 74.5446 32.1031 75.2169 33.2396 75.2169C34.3761 75.2169 35.2405 74.5446 35.2405 73.3761C35.2405 72.2236 34.3761 71.5513 33.2396 71.5513ZM38.714 68.7341H40.8429V83.6046H38.714V68.7341ZM28.7896 80.5953L28.5335 78.8825C31.1427 78.8825 34.7763 78.8505 37.8976 78.3863L38.0577 79.923C34.8403 80.5633 31.3508 80.5953 28.7896 80.5953ZM45.9639 77.3939H48.0448V80.8834H45.9639V77.3939ZM50.6539 77.3779H52.7349V80.8834H50.6539V77.3779ZM42.5704 80.2111H55.9843V81.9399H42.5704V80.2111ZM44.0751 69.7105H54.4796V74.6247H46.22V77.1378H44.1071V72.9599H52.3667V71.3912H44.0751V69.7105ZM44.1071 76.2414H54.8158V77.9541H44.1071V76.2414ZM57.2956 69.8226H63.6344V71.5353H57.2956V69.8226ZM59.1204 73.2801H61.2333V76.9937H59.1204V73.2801ZM62.802 69.8226H64.8989V70.751C64.8989 71.7914 64.8989 73.2641 64.5468 75.1049L62.4819 74.8808C62.802 73.056 62.802 71.7754 62.802 70.751V69.8226ZM66.3396 68.7501H68.4845V79.8429H66.3396V68.7501ZM67.6361 73.2641H70.2453V75.0088H67.6361V73.2641ZM58.5922 81.6197H68.9487V83.3165H58.5922V81.6197ZM58.5922 78.8505H60.7211V82.1479H58.5922V78.8505ZM56.6233 77.8581L56.4312 76.1773C58.9923 76.1773 62.5619 76.1293 65.5392 75.7131L65.6673 77.2178C62.6099 77.794 59.1684 77.8581 56.6233 77.8581ZM80.9367 68.7341H83.0656V83.6046H80.9367V68.7341ZM71.5246 78.4183H72.8372C75.4623 78.4183 77.5592 78.3223 79.9122 77.9221L80.1203 79.6348C77.7193 80.067 75.5423 80.1471 72.8372 80.1471H71.5246V78.4183ZM71.5086 69.9986H78.5036V75.7291H73.6855V79.0586H71.5246V74.0484H76.3267V71.6954H71.5086V69.9986ZM88.1386 71.0871H89.8193V72.7518C89.8193 76.0973 88.4107 79.5068 85.6895 80.7874L84.489 79.1066C86.9381 77.9541 88.1386 75.1849 88.1386 72.7518V71.0871ZM88.5868 71.0871H90.2675V72.7518C90.2675 74.9928 91.42 77.618 93.8531 78.7385L92.6846 80.4192C89.9634 79.1546 88.5868 75.9052 88.5868 72.7518V71.0871ZM85.0653 70.1747H93.1968V71.9195H85.0653V70.1747ZM94.2853 68.7501H96.4302V83.5726H94.2853V68.7501ZM95.95 74.4006H98.5752V76.1613H95.95V74.4006Z" fill="#FF8A00"/>
<rect x="179.093" y="13.2026" width="32.896" height="8.43395" fill="#FF8A00"/>
<rect x="191.323" y="34.3066" width="33.7737" height="8.43395" transform="rotate(-90 191.323 34.3066)" fill="#FF8A00"/>
</svg>
