<svg width="183" height="47" viewBox="0 0 183 47" fill="none" xmlns="http://www.w3.org/2000/svg">
<path d="M0.578557 37.6079V1.95432H8.04036V31.4556H23.6311V37.6079H0.578557ZM25.5603 37.6079V11.121H32.775V37.6079H25.5603ZM29.1676 7.71127C28.0805 7.71127 27.1663 7.34065 26.4251 6.59942C25.6838 5.85818 25.3132 4.97693 25.3132 3.95566C25.3132 2.91793 25.6838 2.03668 26.4251 1.31191C27.1663 0.570673 28.0805 0.200053 29.1676 0.200053C30.2548 0.200053 31.169 0.570673 31.9102 1.31191C32.6515 2.03668 33.0221 2.91793 33.0221 3.95566C33.0221 4.97693 32.6515 5.85818 31.9102 6.59942C31.169 7.34065 30.2548 7.71127 29.1676 7.71127ZM37.5209 37.6079V16.5567H33.9136V11.121H37.5209V8.99609C37.5209 7.26653 37.8092 5.8417 38.3857 4.72161C38.9787 3.60152 39.9094 2.76968 41.1777 2.22611C42.4625 1.68253 44.1509 1.41074 46.2428 1.41074C46.9017 1.41074 47.5688 1.44369 48.2442 1.50958C48.9195 1.55899 49.4631 1.62488 49.8749 1.70724V6.47588C49.6278 6.42646 49.3396 6.39352 49.0101 6.37704C48.6807 6.36057 48.3512 6.35234 48.0218 6.35234C46.8358 6.35234 45.9628 6.59942 45.4028 7.09357C44.8427 7.58773 44.5627 8.3125 44.5627 9.26788V11.121H49.8255V16.5567H44.7356V37.6079H37.5209ZM61.8355 38.1515C59.1341 38.1515 56.8116 37.5997 54.8679 36.4961C52.9242 35.376 51.4252 33.7864 50.371 31.7274C49.3333 29.6684 48.8144 27.2306 48.8144 24.4139V24.3891C48.8144 21.5724 49.3333 19.1346 50.371 17.0756C51.4252 15.0001 52.8995 13.4023 54.7938 12.2822C56.7045 11.1457 58.9529 10.5774 61.539 10.5774C64.1251 10.5774 66.3571 11.1292 68.2349 12.2328C70.1292 13.32 71.5869 14.8601 72.6082 16.8532C73.6459 18.8463 74.1648 21.1771 74.1648 23.8456V26.0693H52.3477V21.523H70.7551L67.3207 25.7728V23.0055C67.3207 21.4571 67.0819 20.1641 66.6042 19.1264C66.1265 18.0721 65.4594 17.2815 64.6028 16.7544C63.7628 16.2273 62.7827 15.9637 61.6626 15.9637C60.5425 15.9637 59.5459 16.2355 58.6729 16.7791C57.8164 17.3227 57.141 18.1216 56.6469 19.1758C56.1692 20.2135 55.9303 21.4901 55.9303 23.0055V25.7975C55.9303 27.2635 56.1692 28.5154 56.6469 29.5531C57.141 30.5908 57.8411 31.3897 58.747 31.9498C59.653 32.4934 60.7319 32.7651 61.9838 32.7651C62.9721 32.7651 63.8286 32.6087 64.5534 32.2957C65.2782 31.9827 65.8712 31.5874 66.3324 31.1097C66.7936 30.632 67.1066 30.1461 67.2713 29.6519L67.3207 29.5037H73.9424L73.8683 29.7755C73.6706 30.7473 73.2836 31.7274 72.707 32.7157C72.1305 33.7041 71.3481 34.61 70.3598 35.4336C69.3879 36.2572 68.1937 36.9161 66.7771 37.4102C65.377 37.9044 63.7298 38.1515 61.8355 38.1515ZM89.5104 38.2256C86.6937 38.2256 84.2312 37.8138 82.1227 36.9902C80.0308 36.1501 78.3836 34.9559 77.1811 33.4076C75.9787 31.8427 75.3033 29.9649 75.1551 27.7741L75.1304 27.3788H82.1722L82.2216 27.6506C82.3863 28.573 82.7981 29.3719 83.457 30.0473C84.1323 30.7062 85.0053 31.225 86.076 31.6039C87.1467 31.9663 88.3574 32.1475 89.7081 32.1475C91.0917 32.1475 92.2777 31.9663 93.266 31.6039C94.2708 31.225 95.045 30.6979 95.5886 30.0226C96.1486 29.3307 96.4287 28.5319 96.4287 27.6259V27.6012C96.4287 26.3987 95.951 25.4598 94.9956 24.7845C94.0567 24.0927 92.4754 23.5161 90.2517 23.0549L86.496 22.3137C82.9875 21.6054 80.3438 20.4112 78.5648 18.731C76.7858 17.0509 75.8963 14.8683 75.8963 12.1834V12.1587C75.8963 9.98441 76.4811 8.09013 77.6506 6.47588C78.8201 4.84515 80.4261 3.58504 82.4687 2.69556C84.5112 1.7896 86.8502 1.33662 89.4857 1.33662C92.2365 1.33662 94.6085 1.76489 96.6016 2.62143C98.6112 3.47798 100.176 4.68867 101.296 6.2535C102.416 7.81834 103.034 9.6385 103.149 11.714L103.174 12.1834H96.1322L96.1074 11.8869C95.9757 10.948 95.6215 10.1491 95.045 9.49025C94.4685 8.8149 93.7025 8.29603 92.7472 7.93365C91.8083 7.57126 90.7211 7.39007 89.4857 7.39007C88.2174 7.39007 87.122 7.5795 86.1996 7.95835C85.2771 8.32074 84.5688 8.82313 84.0747 9.46554C83.597 10.1079 83.3581 10.8574 83.3581 11.714V11.7387C83.3581 12.8588 83.8358 13.7647 84.7912 14.4565C85.7466 15.1484 87.2455 15.7002 89.288 16.112L93.0684 16.8779C95.5556 17.3721 97.5982 18.0557 99.1959 18.9287C100.794 19.8017 101.971 20.9053 102.729 22.2396C103.503 23.5573 103.89 25.1469 103.89 27.0082V27.0329C103.89 29.3225 103.314 31.3074 102.161 32.9875C101.024 34.6512 99.3771 35.9442 97.2193 36.8667C95.0779 37.7726 92.5083 38.2256 89.5104 38.2256ZM109.971 46.3298C109.262 46.3298 108.579 46.2969 107.92 46.231C107.261 46.1651 106.717 46.091 106.289 46.0086V40.647C106.553 40.6964 106.89 40.7458 107.302 40.7952C107.714 40.8611 108.183 40.8941 108.71 40.8941C109.798 40.8941 110.654 40.7129 111.28 40.3505C111.906 39.9881 112.375 39.3622 112.688 38.4727L113.01 37.6079L103.645 11.121H111.577L117.556 33.2593L116.592 31.8262H117.951L116.988 33.2593L122.967 11.121H130.577L121.485 38.0774C120.793 40.1528 119.92 41.7918 118.865 42.9942C117.828 44.1967 116.576 45.0532 115.11 45.5639C113.644 46.0745 111.931 46.3298 109.971 46.3298ZM131.073 37.6079V11.121H138.288V15.4696H138.436C139.128 13.9542 140.149 12.7599 141.5 11.8869C142.851 11.0139 144.523 10.5774 146.516 10.5774C149.431 10.5774 151.68 11.4586 153.261 13.2211C154.859 14.9672 155.658 17.3968 155.658 20.51V37.6079H148.443V21.9925C148.443 20.2629 148.031 18.9287 147.207 17.9898C146.4 17.0344 145.19 16.5567 143.575 16.5567C142.505 16.5567 141.574 16.8038 140.783 17.298C139.993 17.7757 139.375 18.451 138.93 19.324C138.502 20.197 138.288 21.2183 138.288 22.3878V37.6079H131.073ZM170.311 38.1515C167.626 38.1515 165.304 37.5914 163.344 36.4713C161.384 35.3512 159.876 33.7617 158.822 31.7027C157.768 29.6272 157.241 27.1729 157.241 24.3397V24.315C157.241 21.4818 157.768 19.044 158.822 17.0015C159.893 14.9425 161.4 13.3612 163.344 12.2575C165.304 11.1374 167.602 10.5774 170.237 10.5774C172.642 10.5774 174.726 11.0304 176.488 11.9363C178.251 12.8258 179.626 14.0365 180.615 15.5684C181.619 17.1003 182.171 18.8216 182.27 20.7324V20.9053H175.574L175.525 20.683C175.311 19.4146 174.767 18.3604 173.894 17.5203C173.021 16.6638 171.835 16.2355 170.336 16.2355C169.167 16.2355 168.145 16.565 167.272 17.2238C166.416 17.8662 165.749 18.7969 165.271 20.0158C164.81 21.2183 164.579 22.6596 164.579 24.3397V24.3644C164.579 26.094 164.81 27.5682 165.271 28.7872C165.749 29.9896 166.416 30.9121 167.272 31.5545C168.145 32.1804 169.175 32.4934 170.361 32.4934C171.81 32.4934 172.972 32.0898 173.845 31.2827C174.734 30.4591 175.302 29.3802 175.549 28.0459L175.574 27.8236H182.295V27.9718C182.179 29.899 181.619 31.6286 180.615 33.1605C179.61 34.6924 178.226 35.9113 176.464 36.8173C174.718 37.7067 172.667 38.1515 170.311 38.1515Z" fill="#FF8A00"/>
</svg>
